<svg xmlns="http://www.w3.org/2000/svg" version="1.1" xmlns:xlink="http://www.w3.org/1999/xlink" width="200" height="200"><svg xmlns="http://www.w3.org/2000/svg" version="1.1" xmlns:xlink="http://www.w3.org/1999/xlink" viewBox="0 0 200 200"><rect width="200" height="200" fill="url('#gradient')"></rect><defs><linearGradient id="SvgjsLinearGradient1001" gradientTransform="rotate(45 0.5 0.5)"><stop offset="0%" stop-color="#cfecec"></stop><stop offset="100%" stop-color="#abc7db"></stop></linearGradient></defs><g><g fill="#38668c" transform="matrix(5.906157443491816,0,0,5.906157443491816,22.035597974113074,141.99703555133132)" stroke="#2a4a46" stroke-width="0.2"><path d="M9.17-4.81L12.58-4.81Q12.51-3.33 11.78-2.19Q11.04-1.05 9.72-0.43Q8.40 0.20 6.70 0.20L6.70 0.20Q3.90 0.20 2.29-1.63Q0.67-3.46 0.67-6.79L0.67-6.79L0.67-7.49Q0.67-9.58 1.40-11.15Q2.13-12.71 3.50-13.57Q4.86-14.42 6.66-14.42L6.66-14.42Q9.25-14.42 10.82-13.06Q12.39-11.70 12.61-9.31L12.61-9.31L9.19-9.31Q9.15-10.61 8.54-11.17Q7.92-11.74 6.66-11.74L6.66-11.74Q5.38-11.74 4.79-10.78Q4.19-9.82 4.16-7.72L4.16-7.72L4.16-6.72Q4.16-4.44 4.73-3.47Q5.30-2.49 6.70-2.49L6.70-2.49Q7.88-2.49 8.51-3.05Q9.13-3.60 9.17-4.81L9.17-4.81ZM22.29-4.81L25.70-4.81Q25.63-3.33 24.90-2.19Q24.17-1.05 22.85-0.43Q21.52 0.20 19.82 0.20L19.82 0.20Q17.02 0.20 15.41-1.63Q13.80-3.46 13.80-6.79L13.80-6.79L13.80-7.49Q13.80-9.58 14.53-11.15Q15.25-12.71 16.62-13.57Q17.99-14.42 19.79-14.42L19.79-14.42Q22.37-14.42 23.95-13.06Q25.52-11.70 25.73-9.31L25.73-9.31L22.31-9.31Q22.28-10.61 21.66-11.17Q21.04-11.74 19.79-11.74L19.79-11.74Q18.51-11.74 17.91-10.78Q17.31-9.82 17.29-7.72L17.29-7.72L17.29-6.72Q17.29-4.44 17.86-3.47Q18.43-2.49 19.82-2.49L19.82-2.49Q21.01-2.49 21.63-3.05Q22.26-3.60 22.29-4.81L22.29-4.81Z"></path></g></g></svg><style>@media (prefers-color-scheme: light) { :root { filter: none; } }
@media (prefers-color-scheme: dark) { :root { filter: none; } }
</style></svg>